<?xml version="1.0" encoding="UTF-8" standalone="no"?><!-- Generator: Gravit.io --><svg xmlns="http://www.w3.org/2000/svg" xmlns:xlink="http://www.w3.org/1999/xlink" style="isolation:isolate" viewBox="0 0 800 600" width="800pt" height="600pt"><defs><clipPath id="_clipPath_v1eAkKTUlRVu1JFLpqfFqx7RfxeFZS1B"><rect width="800" height="600"/></clipPath></defs><g clip-path="url(#_clipPath_v1eAkKTUlRVu1JFLpqfFqx7RfxeFZS1B)"><rect x="0" y="0" width="800" height="600" transform="matrix(1,0,0,1,0,0)" fill="rgb(235,235,235)"/><linearGradient id="_lgradient_0" x1="-0.19354448742746627" y1="-0.16129378895336338" x2="1.1875000000000002" y2="1.1565656565656568" gradientTransform="matrix(800,0,0,600,0,0)" gradientUnits="userSpaceOnUse"><stop offset="1.6666666666666667%" stop-opacity="1" style="stop-color:rgb(34,34,34)"/><stop offset="50.83333333333333%" stop-opacity="1" style="stop-color:rgb(157,155,129)"/><stop offset="97.91666666666666%" stop-opacity="1" style="stop-color:rgb(42,42,42)"/><stop offset="100%" stop-opacity="1" style="stop-color:rgb(6,5,5)"/></linearGradient><rect x="0" y="0" width="800" height="600" transform="matrix(1,0,0,1,0,0)" fill="url(#_lgradient_0)"/><g><defs><filter id="lDDFaDwl5gpyrNlZn0Xnc0lidSri0ztX" x="-200%" y="-200%" width="400%" height="400%" filterUnits="objectBoundingBox" color-interpolation-filters="sRGB"><feGaussianBlur xmlns="http://www.w3.org/2000/svg" in="SourceGraphic" stdDeviation="12.880827188517085"/><feOffset xmlns="http://www.w3.org/2000/svg" dx="0" dy="5" result="pf_100_offsetBlur"/><feFlood xmlns="http://www.w3.org/2000/svg" flood-color="#000000" flood-opacity="0.65"/><feComposite xmlns="http://www.w3.org/2000/svg" in2="pf_100_offsetBlur" operator="in" result="pf_100_dropShadow"/><feBlend xmlns="http://www.w3.org/2000/svg" in="SourceGraphic" in2="pf_100_dropShadow" mode="normal"/></filter></defs><g filter="url(#lDDFaDwl5gpyrNlZn0Xnc0lidSri0ztX)"><circle vector-effect="non-scaling-stroke" cx="400" cy="237.5" r="175" fill="rgb(235,235,235)"/><clipPath id="_clipPath_kkEXPUjRrxQF0sqUEDxufMfcp5qEwzNG"><circle vector-effect="non-scaling-stroke" cx="400" cy="237.5" r="175" fill="rgb(235,235,235)"/></clipPath><g clip-path="url(#_clipPath_kkEXPUjRrxQF0sqUEDxufMfcp5qEwzNG)"><defs><filter id="SHHwC9sVSEWed8UkdXVCHX99xzQTtKuD" x="-200%" y="-200%" width="400%" height="400%" filterUnits="objectBoundingBox" color-interpolation-filters="sRGB"><feGaussianBlur xmlns="http://www.w3.org/2000/svg" in="SourceGraphic" stdDeviation="2.146804531419514"/><feOffset xmlns="http://www.w3.org/2000/svg" dx="0" dy="1" result="pf_100_offsetBlur"/><feFlood xmlns="http://www.w3.org/2000/svg" flood-color="#000000" flood-opacity="0.65"/><feComposite xmlns="http://www.w3.org/2000/svg" in2="pf_100_offsetBlur" operator="in" result="pf_100_dropShadow"/><feBlend xmlns="http://www.w3.org/2000/svg" in="SourceGraphic" in2="pf_100_dropShadow" mode="normal"/></filter></defs><g filter="url(#SHHwC9sVSEWed8UkdXVCHX99xzQTtKuD)"><path d=" M 325 387.5 C 325 346.106 358.606 312.5 400 312.5 C 441.394 312.5 475 346.106 475 387.5 C 475 428.894 441.394 462.5 400 462.5 C 358.606 462.5 325 428.894 325 387.5 Z " fill="rgb(235,235,235)"/><path d=" M 325 387.5 C 325 346.106 358.606 312.5 400 312.5 C 441.394 312.5 475 346.106 475 387.5 C 475 428.894 441.394 462.5 400 462.5 C 358.606 462.5 325 428.894 325 387.5 Z " fill="rgb(185,185,185)"/></g><defs><filter id="DpjiwKqNgNcxSXkLJVT7xrN21UJaL0ZC" x="-200%" y="-200%" width="400%" height="400%" filterUnits="objectBoundingBox" color-interpolation-filters="sRGB"><feGaussianBlur xmlns="http://www.w3.org/2000/svg" in="SourceGraphic" stdDeviation="2.146804531419514"/><feOffset xmlns="http://www.w3.org/2000/svg" dx="0" dy="1" result="pf_100_offsetBlur"/><feFlood xmlns="http://www.w3.org/2000/svg" flood-color="#000000" flood-opacity="0.65"/><feComposite xmlns="http://www.w3.org/2000/svg" in2="pf_100_offsetBlur" operator="in" result="pf_100_dropShadow"/><feBlend xmlns="http://www.w3.org/2000/svg" in="SourceGraphic" in2="pf_100_dropShadow" mode="normal"/></filter></defs><g filter="url(#DpjiwKqNgNcxSXkLJVT7xrN21UJaL0ZC)"><path d=" M 425 337.5 C 425 296.106 458.606 262.5 500 262.5 C 541.394 262.5 575 296.106 575 337.5 C 575 378.894 541.394 412.5 500 412.5 C 458.606 412.5 425 378.894 425 337.5 Z " fill="rgb(235,235,235)"/><path d=" M 425 337.5 C 425 296.106 458.606 262.5 500 262.5 C 541.394 262.5 575 296.106 575 337.5 C 575 378.894 541.394 412.5 500 412.5 C 458.606 412.5 425 378.894 425 337.5 Z " fill="rgb(0,0,0)"/></g><defs><filter id="LSHiiV5akUZRZmZBVE4tTlK5TQ0R0MAf" x="-200%" y="-200%" width="400%" height="400%" filterUnits="objectBoundingBox" color-interpolation-filters="sRGB"><feGaussianBlur xmlns="http://www.w3.org/2000/svg" in="SourceGraphic" stdDeviation="2.146804531419514"/><feOffset xmlns="http://www.w3.org/2000/svg" dx="0" dy="1" result="pf_100_offsetBlur"/><feFlood xmlns="http://www.w3.org/2000/svg" flood-color="#000000" flood-opacity="0.65"/><feComposite xmlns="http://www.w3.org/2000/svg" in2="pf_100_offsetBlur" operator="in" result="pf_100_dropShadow"/><feBlend xmlns="http://www.w3.org/2000/svg" in="SourceGraphic" in2="pf_100_dropShadow" mode="normal"/></filter></defs><g filter="url(#LSHiiV5akUZRZmZBVE4tTlK5TQ0R0MAf)"><path d=" M 475 237.5 C 475 196.106 508.606 162.5 550 162.5 C 591.394 162.5 625 196.106 625 237.5 C 625 278.894 591.394 312.5 550 312.5 C 508.606 312.5 475 278.894 475 237.5 Z " fill="rgb(235,235,235)"/><path d=" M 475 237.5 C 475 196.106 508.606 162.5 550 162.5 C 591.394 162.5 625 196.106 625 237.5 C 625 278.894 591.394 312.5 550 312.5 C 508.606 312.5 475 278.894 475 237.5 Z " fill="rgb(23,23,23)"/></g><defs><filter id="fUqyLq7ajt1EgYxZZYhq6wMFCYQDVMIZ" x="-200%" y="-200%" width="400%" height="400%" filterUnits="objectBoundingBox" color-interpolation-filters="sRGB"><feGaussianBlur xmlns="http://www.w3.org/2000/svg" in="SourceGraphic" stdDeviation="2.146804531419514"/><feOffset xmlns="http://www.w3.org/2000/svg" dx="0" dy="1" result="pf_100_offsetBlur"/><feFlood xmlns="http://www.w3.org/2000/svg" flood-color="#000000" flood-opacity="0.65"/><feComposite xmlns="http://www.w3.org/2000/svg" in2="pf_100_offsetBlur" operator="in" result="pf_100_dropShadow"/><feBlend xmlns="http://www.w3.org/2000/svg" in="SourceGraphic" in2="pf_100_dropShadow" mode="normal"/></filter></defs><g filter="url(#fUqyLq7ajt1EgYxZZYhq6wMFCYQDVMIZ)"><path d=" M 425 137.5 C 425 96.106 458.606 62.5 500 62.5 C 541.394 62.5 575 96.106 575 137.5 C 575 178.894 541.394 212.5 500 212.5 C 458.606 212.5 425 178.894 425 137.5 Z " fill="rgb(235,235,235)"/><path d=" M 425 137.5 C 425 96.106 458.606 62.5 500 62.5 C 541.394 62.5 575 96.106 575 137.5 C 575 178.894 541.394 212.5 500 212.5 C 458.606 212.5 425 178.894 425 137.5 Z " fill="rgb(46,46,46)"/></g><defs><filter id="UGKuF69VmifLW2QeUCzOAghlOvZbD6wM" x="-200%" y="-200%" width="400%" height="400%" filterUnits="objectBoundingBox" color-interpolation-filters="sRGB"><feGaussianBlur xmlns="http://www.w3.org/2000/svg" in="SourceGraphic" stdDeviation="2.146804531419514"/><feOffset xmlns="http://www.w3.org/2000/svg" dx="0" dy="1" result="pf_100_offsetBlur"/><feFlood xmlns="http://www.w3.org/2000/svg" flood-color="#000000" flood-opacity="0.65"/><feComposite xmlns="http://www.w3.org/2000/svg" in2="pf_100_offsetBlur" operator="in" result="pf_100_dropShadow"/><feBlend xmlns="http://www.w3.org/2000/svg" in="SourceGraphic" in2="pf_100_dropShadow" mode="normal"/></filter></defs><g filter="url(#UGKuF69VmifLW2QeUCzOAghlOvZbD6wM)"><path d=" M 325 87.5 C 325 46.106 358.606 12.5 400 12.5 C 441.394 12.5 475 46.106 475 87.5 C 475 128.894 441.394 162.5 400 162.5 C 358.606 162.5 325 128.894 325 87.5 Z " fill="rgb(70,70,70)"/></g><defs><filter id="v0H0XzntgwZGRWOq7lc5Nf8FeRoetPJV" x="-200%" y="-200%" width="400%" height="400%" filterUnits="objectBoundingBox" color-interpolation-filters="sRGB"><feGaussianBlur xmlns="http://www.w3.org/2000/svg" in="SourceGraphic" stdDeviation="2.146804531419514"/><feOffset xmlns="http://www.w3.org/2000/svg" dx="0" dy="1" result="pf_100_offsetBlur"/><feFlood xmlns="http://www.w3.org/2000/svg" flood-color="#000000" flood-opacity="0.65"/><feComposite xmlns="http://www.w3.org/2000/svg" in2="pf_100_offsetBlur" operator="in" result="pf_100_dropShadow"/><feBlend xmlns="http://www.w3.org/2000/svg" in="SourceGraphic" in2="pf_100_dropShadow" mode="normal"/></filter></defs><g filter="url(#v0H0XzntgwZGRWOq7lc5Nf8FeRoetPJV)"><path d=" M 225 137.5 C 225 96.106 258.606 62.5 300 62.5 C 341.394 62.5 375 96.106 375 137.5 C 375 178.894 341.394 212.5 300 212.5 C 258.606 212.5 225 178.894 225 137.5 Z " fill="rgb(235,235,235)"/><path d=" M 225 137.5 C 225 96.106 258.606 62.5 300 62.5 C 341.394 62.5 375 96.106 375 137.5 C 375 178.894 341.394 212.5 300 212.5 C 258.606 212.5 225 178.894 225 137.5 Z " fill="rgb(93,93,93)"/></g><defs><filter id="7TOlgaMWfUT7ZIKC1eY4qrCq3e6m0dYT" x="-200%" y="-200%" width="400%" height="400%" filterUnits="objectBoundingBox" color-interpolation-filters="sRGB"><feGaussianBlur xmlns="http://www.w3.org/2000/svg" in="SourceGraphic" stdDeviation="2.146804531419514"/><feOffset xmlns="http://www.w3.org/2000/svg" dx="0" dy="1" result="pf_100_offsetBlur"/><feFlood xmlns="http://www.w3.org/2000/svg" flood-color="#000000" flood-opacity="0.65"/><feComposite xmlns="http://www.w3.org/2000/svg" in2="pf_100_offsetBlur" operator="in" result="pf_100_dropShadow"/><feBlend xmlns="http://www.w3.org/2000/svg" in="SourceGraphic" in2="pf_100_dropShadow" mode="normal"/></filter></defs><g filter="url(#7TOlgaMWfUT7ZIKC1eY4qrCq3e6m0dYT)"><path d=" M 175 237.5 C 175 196.106 208.606 162.5 250 162.5 C 291.394 162.5 325 196.106 325 237.5 C 325 278.894 291.394 312.5 250 312.5 C 208.606 312.5 175 278.894 175 237.5 Z " fill="rgb(235,235,235)"/><path d=" M 175 237.5 C 175 196.106 208.606 162.5 250 162.5 C 291.394 162.5 325 196.106 325 237.5 C 325 278.894 291.394 312.5 250 312.5 C 208.606 312.5 175 278.894 175 237.5 Z " fill="rgb(139,139,139)"/></g><defs><filter id="mlqq1gU466tGxKd5izbH3F96VQYJXvPO" x="-200%" y="-200%" width="400%" height="400%" filterUnits="objectBoundingBox" color-interpolation-filters="sRGB"><feGaussianBlur xmlns="http://www.w3.org/2000/svg" in="SourceGraphic" stdDeviation="2.146804531419514"/><feOffset xmlns="http://www.w3.org/2000/svg" dx="0" dy="1" result="pf_100_offsetBlur"/><feFlood xmlns="http://www.w3.org/2000/svg" flood-color="#000000" flood-opacity="0.65"/><feComposite xmlns="http://www.w3.org/2000/svg" in2="pf_100_offsetBlur" operator="in" result="pf_100_dropShadow"/><feBlend xmlns="http://www.w3.org/2000/svg" in="SourceGraphic" in2="pf_100_dropShadow" mode="normal"/></filter></defs><g filter="url(#mlqq1gU466tGxKd5izbH3F96VQYJXvPO)"><path d=" M 225 337.5 C 225 296.106 258.606 262.5 300 262.5 C 341.394 262.5 375 296.106 375 337.5 C 375 378.894 341.394 412.5 300 412.5 C 258.606 412.5 225 378.894 225 337.5 Z " fill="rgb(235,235,235)"/><path d=" M 225 337.5 C 225 296.106 258.606 262.5 300 262.5 C 341.394 262.5 375 296.106 375 337.5 C 375 378.894 341.394 412.5 300 412.5 C 258.606 412.5 225 378.894 225 337.5 Z " fill="rgb(162,162,162)"/></g></g></g><defs><filter id="Zwp5TxWMCW585SHLwlBvT7IARW0BxA2Y" x="-200%" y="-200%" width="400%" height="400%" filterUnits="objectBoundingBox" color-interpolation-filters="sRGB"><feOffset xmlns="http://www.w3.org/2000/svg" in="SourceGraphic" dx="0" dy="5"/><feGaussianBlur xmlns="http://www.w3.org/2000/svg" stdDeviation="12.880827188517085" result="pf_100_offsetBlur"/><feComposite xmlns="http://www.w3.org/2000/svg" in="SourceGraphic" in2="pf_100_offsetBlur" result="pf_100_inverse" operator="out"/><feFlood xmlns="http://www.w3.org/2000/svg" flood-color="#000000" flood-opacity="0.65" result="pf_100_color"/><feComposite xmlns="http://www.w3.org/2000/svg" in="pf_100_color" in2="pf_100_inverse" operator="in" result="pf_100_shadow"/><feComposite xmlns="http://www.w3.org/2000/svg" in="pf_100_shadow" in2="SourceGraphic" operator="over"/></filter><linearGradient id="_lgradient_1" x1="-1.1580196227195692" y1="-1.6201408581289605" x2="2.478609625668447" y2="3.0935828877005327"><stop offset="2.083333333333333%" style="stop-color:#2A2A2A"/><stop offset="50.83333333333333%" style="stop-color:#9D9B81"/><stop offset="51.52922348164702%" style="stop-color:#9B997F"/><stop offset="100%" style="stop-color:#060505"/><stop offset="100%" style="stop-color:#000000"/></linearGradient></defs><g filter="url(#Zwp5TxWMCW585SHLwlBvT7IARW0BxA2Y)"><path d="M 337.667 152.5 L 462.333 152.5 C 474.843 152.5 485 162.657 485 175.167 L 485 299.833 C 485 312.343 474.843 322.5 462.333 322.5 L 337.667 322.5 C 325.157 322.5 315 312.343 315 299.833 L 315 175.167 C 315 162.657 325.157 152.5 337.667 152.5 Z" style="stroke:none;fill:#FFFFFF;stroke-miterlimit:10;"/><path d="M 337.667 152.5 L 462.333 152.5 C 474.843 152.5 485 162.657 485 175.167 L 485 299.833 C 485 312.343 474.843 322.5 462.333 322.5 L 337.667 322.5 C 325.157 322.5 315 312.343 315 299.833 L 315 175.167 C 315 162.657 325.157 152.5 337.667 152.5 Z" style="stroke:none;fill:url(#_lgradient_1);stroke-miterlimit:10;"/></g><defs><filter id="vfhd90a6pUwfxpfT4gh5igG6jXWoTR5s" x="-200%" y="-200%" width="400%" height="400%" filterUnits="objectBoundingBox" color-interpolation-filters="sRGB"><feGaussianBlur xmlns="http://www.w3.org/2000/svg" in="SourceGraphic" stdDeviation="1.7174436251356113"/><feOffset xmlns="http://www.w3.org/2000/svg" dx="0" dy="3" result="pf_100_offsetBlur"/><feFlood xmlns="http://www.w3.org/2000/svg" flood-color="#000000" flood-opacity="0.5"/><feComposite xmlns="http://www.w3.org/2000/svg" in2="pf_100_offsetBlur" operator="in" result="pf_100_dropShadow"/><feBlend xmlns="http://www.w3.org/2000/svg" in="SourceGraphic" in2="pf_100_dropShadow" mode="normal"/></filter></defs><g filter="url(#vfhd90a6pUwfxpfT4gh5igG6jXWoTR5s)"><g clip-path="url(#_clipPath_7FPlMYoyveA6w89A5TWOu2kUOgaM50co)"><text transform="matrix(1,0,0,1,200.227,488.297)" style="font-family:'Walter Turncoat';font-weight:400;font-size:72px;font-style:normal;fill:#000000;stroke:none;">Square Peg</text></g><defs><clipPath id="_clipPath_7FPlMYoyveA6w89A5TWOu2kUOgaM50co"><rect x="0" y="0" width="594" height="125" transform="matrix(1,0,0,1,103,412.5)"/></clipPath></defs></g></g></g></svg>